<?xml version="1.0" encoding="UTF-8"?>
<svg xmlns="http://www.w3.org/2000/svg" xmlns:xlink="http://www.w3.org/1999/xlink" width="600" height="600" viewBox="0 0 600 600">
<path fill-rule="nonzero" fill="rgb(14.901961%, 14.901961%, 14.901961%)" fill-opacity="1" d="M 595 300 C 595 462.925781 462.925781 595 300 595 C 137.074219 595 5 462.925781 5 300 C 5 137.074219 137.074219 5 300 5 C 462.925781 5 595 137.074219 595 300 Z M 595 300 "/>
<path fill-rule="nonzero" fill="rgb(61.347823%, 66.834033%, 45.703109%)" fill-opacity="0.7" stroke-width="2" stroke-linecap="butt" stroke-linejoin="miter" stroke="rgb(100%, 100%, 100%)" stroke-opacity="0.7" stroke-miterlimit="10" d="M 177.5 170.621094 L 177.046875 175.609375 L 176.472656 180.585938 L 175.777344 185.546875 L 174.964844 190.492188 L 174.035156 195.414062 L 172.984375 200.3125 L 171.820312 205.183594 L 170.539062 210.023438 L 169.140625 214.835938 L 167.625 219.609375 L 166 224.347656 L 164.257812 229.042969 L 162.40625 233.699219 L 160.445312 238.308594 L 158.371094 242.867188 L 156.1875 247.375 L 153.898438 251.832031 L 151.503906 256.230469 L 149.003906 260.570312 L 146.398438 264.847656 L 143.695312 269.066406 L 140.886719 273.214844 L 137.984375 277.296875 L 134.980469 281.304688 L 131.882812 285.242188 L 128.695312 289.105469 L 125.410156 292.886719 L 122.039062 296.59375 L 118.578125 300.214844 L 115.035156 303.753906 L 111.402344 307.203125 L 107.691406 310.570312 L 103.902344 313.84375 L 100.035156 317.023438 L 96.089844 320.113281 L 92.074219 323.105469 L 87.988281 326.003906 L 83.832031 328.800781 L 79.609375 331.496094 L 84.761719 329.503906 L 89.882812 327.433594 L 94.976562 325.292969 L 100.035156 323.078125 L 105.066406 320.792969 L 110.058594 318.433594 L 115.019531 316.003906 L 119.945312 313.5 L 124.835938 310.929688 L 129.6875 308.289062 L 134.5 305.578125 L 139.273438 302.796875 L 144.007812 299.949219 L 148.699219 297.035156 L 153.347656 294.054688 L 157.957031 291.003906 L 162.519531 287.890625 L 167.035156 284.710938 L 171.507812 281.464844 L 175.929688 278.160156 L 180.304688 274.789062 L 184.632812 271.355469 L 188.910156 267.859375 L 193.136719 264.300781 L 197.3125 260.6875 L 201.4375 257.007812 L 205.507812 253.273438 L 209.523438 249.480469 L 213.484375 245.632812 L 217.390625 241.726562 L 221.238281 237.761719 L 225.03125 233.746094 L 228.765625 229.675781 L 232.441406 225.550781 L 236.054688 221.375 L 239.609375 217.148438 L 243.105469 212.867188 L 246.539062 208.539062 L 249.90625 204.164062 L 247.988281 203.445312 L 246.074219 202.714844 L 244.164062 201.980469 L 242.253906 201.238281 L 240.347656 200.488281 L 238.445312 199.730469 L 236.546875 198.964844 L 234.648438 198.195312 L 232.753906 197.414062 L 230.863281 196.628906 L 228.976562 195.832031 L 227.09375 195.03125 L 225.210938 194.222656 L 223.332031 193.40625 L 221.457031 192.582031 L 219.585938 191.75 L 217.71875 190.910156 L 215.851562 190.0625 L 213.992188 189.210938 L 212.132812 188.347656 L 210.277344 187.480469 L 208.425781 186.605469 L 206.578125 185.722656 L 204.734375 184.832031 L 202.890625 183.9375 L 201.054688 183.03125 L 199.21875 182.121094 L 197.390625 181.199219 L 195.5625 180.273438 L 193.738281 179.34375 L 191.921875 178.402344 L 190.105469 177.453125 L 188.292969 176.5 L 186.484375 175.539062 L 184.679688 174.570312 L 182.878906 173.59375 L 181.082031 172.609375 L 179.289062 171.621094 Z M 177.5 170.621094 "/>
<path fill-rule="nonzero" fill="rgb(9.002302%, 27.265745%, 19.15622%)" fill-opacity="0.7" stroke-width="2" stroke-linecap="butt" stroke-linejoin="miter" stroke="rgb(100%, 100%, 100%)" stroke-opacity="0.7" stroke-miterlimit="10" d="M 234.109375 505.578125 L 235.40625 497.203125 L 236.589844 488.8125 L 237.660156 480.40625 L 238.617188 471.984375 L 239.457031 463.550781 L 240.1875 455.109375 L 240.800781 446.65625 L 241.300781 438.195312 L 241.6875 429.730469 L 241.960938 421.261719 L 242.117188 412.789062 L 242.160156 404.3125 L 242.085938 395.839844 L 241.902344 387.367188 L 241.601562 378.898438 L 241.1875 370.433594 L 240.65625 361.972656 L 240.011719 353.523438 L 239.253906 345.082031 L 238.382812 336.652344 L 237.398438 328.238281 L 236.300781 319.832031 L 235.085938 311.445312 L 233.761719 303.074219 L 232.324219 294.722656 L 230.773438 286.390625 L 229.109375 278.082031 L 227.332031 269.796875 L 225.445312 261.535156 L 223.445312 253.300781 L 221.335938 245.089844 L 219.117188 236.914062 L 216.785156 228.765625 L 214.34375 220.648438 L 211.792969 212.566406 L 209.132812 204.519531 L 206.367188 196.511719 L 203.492188 188.539062 L 200.507812 180.605469 L 204.003906 188.046875 L 207.425781 195.527344 L 210.769531 203.035156 L 214.039062 210.582031 L 217.234375 218.15625 L 220.351562 225.765625 L 223.390625 233.40625 L 226.355469 241.074219 L 229.238281 248.773438 L 232.046875 256.503906 L 234.777344 264.257812 L 237.429688 272.042969 L 240 279.851562 L 242.496094 287.6875 L 244.910156 295.546875 L 247.246094 303.429688 L 249.503906 311.335938 L 251.679688 319.265625 L 253.777344 327.214844 L 255.792969 335.1875 L 257.726562 343.179688 L 259.582031 351.1875 L 261.355469 359.21875 L 263.050781 367.265625 L 264.660156 375.328125 L 266.191406 383.40625 L 267.640625 391.5 L 269.011719 399.605469 L 270.296875 407.726562 L 271.5 415.859375 L 272.621094 424.007812 L 273.660156 432.164062 L 274.621094 440.328125 L 275.496094 448.503906 L 276.289062 456.6875 L 276.996094 464.878906 L 277.625 473.078125 L 278.171875 481.28125 L 278.632812 489.492188 L 277.433594 489.710938 L 276.234375 489.9375 L 275.039062 490.175781 L 273.84375 490.425781 L 272.652344 490.6875 L 271.460938 490.957031 L 270.277344 491.238281 L 269.089844 491.527344 L 267.910156 491.828125 L 266.730469 492.140625 L 265.554688 492.464844 L 264.378906 492.796875 L 263.210938 493.140625 L 262.042969 493.492188 L 260.878906 493.855469 L 259.714844 494.230469 L 258.558594 494.613281 L 257.402344 495.007812 L 256.253906 495.414062 L 255.105469 495.828125 L 253.960938 496.253906 L 252.820312 496.6875 L 251.6875 497.132812 L 250.554688 497.585938 L 249.425781 498.050781 L 248.300781 498.523438 L 247.183594 499.007812 L 246.066406 499.503906 L 244.957031 500.007812 L 243.851562 500.523438 L 242.75 501.046875 L 241.652344 501.578125 L 240.558594 502.121094 L 239.472656 502.671875 L 238.390625 503.234375 L 237.3125 503.808594 L 236.238281 504.386719 L 235.171875 504.980469 Z M 234.109375 505.578125 "/>
<path fill-rule="nonzero" fill="rgb(39.77067%, 31.592946%, 43.412685%)" fill-opacity="0.7" stroke-width="2" stroke-linecap="butt" stroke-linejoin="miter" stroke="rgb(100%, 100%, 100%)" stroke-opacity="0.7" stroke-miterlimit="10" d="M 136.054688 385.371094 L 144.386719 383.324219 L 152.75 381.386719 L 161.140625 379.570312 L 169.550781 377.867188 L 177.988281 376.28125 L 186.441406 374.8125 L 194.917969 373.460938 L 203.414062 372.226562 L 211.921875 371.109375 L 220.445312 370.109375 L 228.984375 369.226562 L 237.535156 368.464844 L 246.09375 367.816406 L 254.660156 367.289062 L 263.230469 366.878906 L 271.808594 366.589844 L 280.390625 366.417969 L 288.972656 366.363281 L 297.558594 366.425781 L 306.136719 366.609375 L 314.714844 366.910156 L 323.289062 367.332031 L 331.855469 367.871094 L 340.414062 368.527344 L 348.960938 369.300781 L 357.496094 370.195312 L 366.019531 371.203125 L 374.53125 372.332031 L 383.023438 373.578125 L 391.496094 374.941406 L 399.949219 376.417969 L 408.382812 378.015625 L 416.792969 379.726562 L 425.179688 381.558594 L 433.539062 383.5 L 441.871094 385.558594 L 450.175781 387.734375 L 458.449219 390.023438 L 466.6875 392.425781 L 463.214844 393.839844 L 459.773438 395.328125 L 456.367188 396.890625 L 452.992188 398.53125 L 449.65625 400.242188 L 446.355469 402.023438 L 443.097656 403.878906 L 439.878906 405.800781 L 436.703125 407.796875 L 433.574219 409.859375 L 430.488281 411.988281 L 427.449219 414.1875 L 424.457031 416.449219 L 421.519531 418.777344 L 418.628906 421.167969 L 415.792969 423.621094 L 413.011719 426.136719 L 410.285156 428.710938 L 407.617188 431.34375 L 405.003906 434.03125 L 402.453125 436.78125 L 399.960938 439.582031 L 397.527344 442.4375 L 395.160156 445.34375 L 392.855469 448.300781 L 390.617188 451.308594 L 388.445312 454.367188 L 386.335938 457.46875 L 384.300781 460.613281 L 382.332031 463.804688 L 380.429688 467.039062 L 378.601562 470.3125 L 376.847656 473.625 L 375.160156 476.976562 L 373.550781 480.363281 L 372.015625 483.78125 L 370.550781 487.234375 L 369.164062 490.71875 L 367.855469 494.230469 L 363.4375 489.097656 L 358.902344 484.058594 L 354.261719 479.125 L 349.511719 474.292969 L 344.652344 469.570312 L 339.695312 464.953125 L 334.632812 460.449219 L 329.472656 456.058594 L 324.21875 451.78125 L 318.867188 447.625 L 313.425781 443.585938 L 307.898438 439.667969 L 302.285156 435.875 L 296.589844 432.207031 L 290.8125 428.667969 L 284.957031 425.253906 L 279.03125 421.972656 L 273.03125 418.824219 L 266.964844 415.808594 L 260.832031 412.929688 L 254.636719 410.183594 L 248.382812 407.578125 L 242.070312 405.113281 L 235.707031 402.789062 L 229.292969 400.605469 L 222.832031 398.5625 L 216.328125 396.664062 L 209.785156 394.910156 L 203.203125 393.304688 L 196.585938 391.84375 L 189.941406 390.53125 L 183.265625 389.363281 L 176.566406 388.34375 L 169.847656 387.476562 L 163.109375 386.753906 L 156.359375 386.183594 L 149.597656 385.761719 L 142.828125 385.492188 Z M 136.054688 385.371094 "/>
<path fill-rule="nonzero" fill="rgb(37.234663%, 3.018555%, 7.933389%)" fill-opacity="0.7" stroke-width="2" stroke-linecap="butt" stroke-linejoin="miter" stroke="rgb(100%, 100%, 100%)" stroke-opacity="0.7" stroke-miterlimit="10" d="M 394.714844 183.550781 L 389.152344 186.34375 L 383.5625 189.070312 L 377.9375 191.730469 L 372.285156 194.324219 L 366.601562 196.851562 L 360.886719 199.3125 L 355.144531 201.707031 L 349.375 204.03125 L 343.582031 206.292969 L 337.757812 208.480469 L 331.910156 210.605469 L 326.039062 212.65625 L 320.144531 214.640625 L 314.222656 216.558594 L 308.285156 218.402344 L 302.320312 220.179688 L 296.339844 221.886719 L 290.339844 223.519531 L 284.316406 225.085938 L 278.277344 226.582031 L 272.222656 228.003906 L 266.152344 229.355469 L 260.0625 230.636719 L 253.960938 231.847656 L 247.847656 232.988281 L 241.71875 234.054688 L 235.578125 235.046875 L 229.425781 235.972656 L 223.261719 236.820312 L 217.089844 237.601562 L 210.910156 238.304688 L 204.722656 238.9375 L 198.527344 239.5 L 192.324219 239.988281 L 186.117188 240.402344 L 179.90625 240.746094 L 173.691406 241.015625 L 167.476562 241.210938 L 161.253906 241.335938 L 168.929688 246.5625 L 176.5625 251.851562 L 184.148438 257.207031 L 191.6875 262.625 L 199.183594 268.105469 L 206.632812 273.648438 L 214.035156 279.253906 L 221.390625 284.917969 L 228.699219 290.648438 L 235.960938 296.4375 L 243.171875 302.285156 L 250.332031 308.195312 L 257.445312 314.164062 L 264.507812 320.191406 L 271.515625 326.28125 L 278.476562 332.425781 L 285.386719 338.628906 L 292.242188 344.890625 L 299.046875 351.210938 L 305.796875 357.585938 L 312.492188 364.019531 L 319.136719 370.507812 L 325.722656 377.050781 L 332.257812 383.648438 L 338.734375 390.300781 L 345.15625 397.003906 L 351.523438 403.765625 L 357.832031 410.578125 L 364.085938 417.441406 L 370.277344 424.359375 L 376.414062 431.328125 L 382.492188 438.347656 L 388.511719 445.421875 L 394.46875 452.539062 L 400.367188 459.710938 L 406.207031 466.929688 L 411.984375 474.199219 L 417.703125 481.515625 L 423.359375 488.878906 L 420.207031 481.527344 L 417.171875 474.125 L 414.261719 466.675781 L 411.472656 459.179688 L 408.808594 451.636719 L 406.265625 444.050781 L 403.851562 436.425781 L 401.558594 428.761719 L 399.394531 421.0625 L 397.355469 413.328125 L 395.445312 405.558594 L 393.660156 397.761719 L 392.007812 389.9375 L 390.480469 382.085938 L 389.082031 374.207031 L 387.816406 366.308594 L 386.675781 358.394531 L 385.667969 350.457031 L 384.789062 342.507812 L 384.042969 334.542969 L 383.425781 326.566406 L 382.941406 318.582031 L 382.585938 310.59375 L 382.363281 302.597656 L 382.273438 294.597656 L 382.3125 286.597656 L 382.480469 278.601562 L 382.785156 270.609375 L 383.214844 262.621094 L 383.78125 254.640625 L 384.476562 246.671875 L 385.300781 238.714844 L 386.253906 230.773438 L 387.339844 222.851562 L 388.558594 214.945312 L 389.902344 207.058594 L 391.378906 199.195312 L 392.980469 191.359375 Z M 394.714844 183.550781 "/>
<path fill-rule="nonzero" fill="rgb(85.390096%, 17.376278%, 29.617986%)" fill-opacity="0.7" stroke-width="2" stroke-linecap="butt" stroke-linejoin="miter" stroke="rgb(100%, 100%, 100%)" stroke-opacity="0.7" stroke-miterlimit="10" d="M 203.949219 140.441406 L 205.648438 141.992188 L 207.359375 143.539062 L 209.074219 145.078125 L 210.796875 146.605469 L 212.527344 148.128906 L 214.261719 149.640625 L 216.007812 151.144531 L 217.757812 152.644531 L 219.515625 154.132812 L 221.277344 155.613281 L 223.050781 157.085938 L 224.828125 158.550781 L 226.613281 160.007812 L 228.40625 161.453125 L 230.203125 162.894531 L 232.007812 164.324219 L 233.820312 165.75 L 235.636719 167.164062 L 237.460938 168.570312 L 239.292969 169.96875 L 241.132812 171.355469 L 242.976562 172.738281 L 244.824219 174.109375 L 246.683594 175.472656 L 248.546875 176.828125 L 250.414062 178.171875 L 252.289062 179.511719 L 254.171875 180.839844 L 256.058594 182.160156 L 257.953125 183.46875 L 259.855469 184.773438 L 261.761719 186.066406 L 263.671875 187.351562 L 265.589844 188.628906 L 267.515625 189.894531 L 269.445312 191.152344 L 271.378906 192.402344 L 273.320312 193.640625 L 275.269531 194.871094 L 271.8125 197.601562 L 268.324219 200.292969 L 264.808594 202.941406 L 261.261719 205.550781 L 257.683594 208.117188 L 254.078125 210.648438 L 250.445312 213.132812 L 246.785156 215.578125 L 243.09375 217.980469 L 239.375 220.339844 L 235.632812 222.660156 L 231.863281 224.933594 L 228.066406 227.167969 L 224.246094 229.355469 L 220.402344 231.5 L 216.53125 233.601562 L 212.636719 235.660156 L 208.722656 237.671875 L 204.78125 239.640625 L 200.820312 241.5625 L 196.835938 243.4375 L 192.832031 245.269531 L 188.808594 247.054688 L 184.761719 248.796875 L 180.699219 250.488281 L 176.613281 252.136719 L 172.511719 253.738281 L 168.394531 255.289062 L 164.253906 256.796875 L 160.101562 258.257812 L 155.929688 259.667969 L 151.742188 261.03125 L 147.542969 262.347656 L 143.324219 263.617188 L 139.09375 264.835938 L 134.847656 266.007812 L 130.589844 267.132812 L 126.320312 268.207031 L 122.039062 269.234375 L 125.25 266.839844 L 128.414062 264.382812 L 131.53125 261.867188 L 134.597656 259.289062 L 137.617188 256.65625 L 140.585938 253.964844 L 143.5 251.21875 L 146.363281 248.414062 L 149.171875 245.558594 L 151.921875 242.648438 L 154.621094 239.6875 L 157.261719 236.675781 L 159.84375 233.609375 L 162.363281 230.5 L 164.828125 227.339844 L 167.230469 224.132812 L 169.570312 220.882812 L 171.847656 217.585938 L 174.058594 214.25 L 176.210938 210.867188 L 178.292969 207.449219 L 180.3125 203.988281 L 182.265625 200.488281 L 184.152344 196.957031 L 185.96875 193.386719 L 187.714844 189.78125 L 189.394531 186.144531 L 191.003906 182.476562 L 192.542969 178.777344 L 194.011719 175.050781 L 195.410156 171.296875 L 196.734375 167.515625 L 197.984375 163.710938 L 199.164062 159.882812 L 200.269531 156.03125 L 201.300781 152.160156 L 202.257812 148.269531 L 203.140625 144.363281 Z M 203.949219 140.441406 "/>
<path fill-rule="nonzero" fill="rgb(32.012879%, 54.840025%, 61.984207%)" fill-opacity="0.7" stroke-width="2" stroke-linecap="butt" stroke-linejoin="miter" stroke="rgb(100%, 100%, 100%)" stroke-opacity="0.7" stroke-miterlimit="10" d="M 458.429688 299.6875 L 451.71875 295.832031 L 445.082031 291.847656 L 438.523438 287.734375 L 432.046875 283.496094 L 425.65625 279.128906 L 419.347656 274.640625 L 413.132812 270.03125 L 407.003906 265.300781 L 400.972656 260.453125 L 395.035156 255.488281 L 389.191406 250.40625 L 383.453125 245.214844 L 377.816406 239.914062 L 372.28125 234.5 L 366.851562 228.980469 L 361.535156 223.359375 L 356.324219 217.632812 L 351.226562 211.808594 L 346.246094 205.886719 L 341.378906 199.867188 L 336.632812 193.753906 L 332.003906 187.546875 L 327.496094 181.253906 L 323.113281 174.875 L 318.855469 168.410156 L 314.722656 161.867188 L 310.71875 155.242188 L 306.847656 148.539062 L 303.101562 141.765625 L 299.492188 134.917969 L 296.015625 128.003906 L 292.675781 121.019531 L 289.46875 113.976562 L 286.402344 106.867188 L 283.472656 99.703125 L 280.6875 92.484375 L 278.039062 85.210938 L 275.535156 77.886719 L 273.171875 70.515625 L 272.375 74.453125 L 271.515625 78.378906 L 270.589844 82.289062 L 269.597656 86.1875 L 268.542969 90.0625 L 267.421875 93.921875 L 266.238281 97.761719 L 264.988281 101.582031 L 263.679688 105.382812 L 262.300781 109.15625 L 260.863281 112.910156 L 259.363281 116.640625 L 257.800781 120.339844 L 256.175781 124.015625 L 254.492188 127.664062 L 252.746094 131.285156 L 250.941406 134.875 L 249.074219 138.433594 L 247.148438 141.964844 L 245.167969 145.457031 L 243.125 148.921875 L 241.027344 152.347656 L 238.871094 155.738281 L 236.65625 159.09375 L 234.390625 162.414062 L 232.066406 165.691406 L 229.691406 168.933594 L 227.257812 172.132812 L 224.773438 175.292969 L 222.238281 178.410156 L 219.648438 181.484375 L 217.011719 184.515625 L 214.320312 187.5 L 211.582031 190.441406 L 208.796875 193.335938 L 205.960938 196.183594 L 203.078125 198.984375 L 200.148438 201.738281 L 197.175781 204.441406 L 203.480469 207.816406 L 209.816406 211.148438 L 216.171875 214.433594 L 222.554688 217.667969 L 228.960938 220.855469 L 235.390625 223.996094 L 241.84375 227.089844 L 248.320312 230.132812 L 254.816406 233.128906 L 261.335938 236.074219 L 267.878906 238.972656 L 274.445312 241.820312 L 281.03125 244.621094 L 287.636719 247.371094 L 294.261719 250.070312 L 300.910156 252.722656 L 307.574219 255.320312 L 314.257812 257.875 L 320.964844 260.375 L 327.6875 262.824219 L 334.425781 265.226562 L 341.1875 267.574219 L 347.960938 269.875 L 354.753906 272.125 L 361.5625 274.320312 L 368.390625 276.46875 L 375.230469 278.5625 L 382.089844 280.609375 L 388.960938 282.601562 L 395.847656 284.542969 L 402.75 286.433594 L 409.664062 288.273438 L 416.59375 290.058594 L 423.535156 291.792969 L 430.492188 293.476562 L 437.457031 295.109375 L 444.4375 296.6875 L 451.425781 298.210938 Z M 458.429688 299.6875 "/>
<path fill-rule="nonzero" fill="rgb(65.490147%, 28.108823%, 36.479264%)" fill-opacity="0.7" stroke-width="2" stroke-linecap="butt" stroke-linejoin="miter" stroke="rgb(100%, 100%, 100%)" stroke-opacity="0.7" stroke-miterlimit="10" d="M 250.261719 373.421875 L 257.117188 373.011719 L 263.976562 372.683594 L 270.835938 372.4375 L 277.699219 372.277344 L 284.566406 372.199219 L 291.433594 372.207031 L 298.296875 372.296875 L 305.164062 372.46875 L 312.023438 372.726562 L 318.882812 373.0625 L 325.734375 373.488281 L 332.582031 373.992188 L 339.421875 374.582031 L 346.257812 375.253906 L 353.082031 376.007812 L 359.894531 376.84375 L 366.699219 377.765625 L 373.492188 378.765625 L 380.273438 379.851562 L 387.039062 381.019531 L 393.789062 382.269531 L 400.527344 383.601562 L 407.246094 385.011719 L 413.945312 386.507812 L 420.628906 388.082031 L 427.292969 389.738281 L 433.9375 391.476562 L 440.558594 393.296875 L 447.15625 395.191406 L 453.730469 397.171875 L 460.28125 399.230469 L 466.804688 401.367188 L 473.304688 403.582031 L 479.777344 405.878906 L 486.21875 408.25 L 492.632812 410.703125 L 499.015625 413.230469 L 505.367188 415.839844 L 511.6875 418.523438 L 508.183594 415.441406 L 504.726562 412.304688 L 501.324219 409.113281 L 497.972656 405.867188 L 494.671875 402.566406 L 491.425781 399.214844 L 488.234375 395.808594 L 485.101562 392.355469 L 482.019531 388.847656 L 479 385.292969 L 476.035156 381.6875 L 473.128906 378.039062 L 470.28125 374.339844 L 467.496094 370.597656 L 464.769531 366.808594 L 462.105469 362.976562 L 459.503906 359.105469 L 456.964844 355.1875 L 454.492188 351.234375 L 452.078125 347.238281 L 449.734375 343.203125 L 447.453125 339.132812 L 445.238281 335.023438 L 443.089844 330.882812 L 441.011719 326.707031 L 438.996094 322.496094 L 437.050781 318.253906 L 435.175781 313.980469 L 433.371094 309.679688 L 431.632812 305.347656 L 429.96875 300.988281 L 428.371094 296.605469 L 426.847656 292.195312 L 425.394531 287.757812 L 424.011719 283.300781 L 422.703125 278.824219 L 421.464844 274.324219 L 420.300781 269.804688 L 419.210938 265.269531 L 414.6875 267.726562 L 410.171875 270.203125 L 405.667969 272.695312 L 401.171875 275.203125 L 396.6875 277.730469 L 392.210938 280.273438 L 387.746094 282.835938 L 383.289062 285.410156 L 378.839844 288.003906 L 374.402344 290.617188 L 369.976562 293.242188 L 365.558594 295.886719 L 361.152344 298.546875 L 356.753906 301.222656 L 352.367188 303.917969 L 347.988281 306.628906 L 343.621094 309.355469 L 339.265625 312.097656 L 334.917969 314.855469 L 330.582031 317.632812 L 326.257812 320.421875 L 321.941406 323.230469 L 317.640625 326.054688 L 313.34375 328.898438 L 309.0625 331.753906 L 304.789062 334.625 L 300.527344 337.515625 L 296.277344 340.421875 L 292.039062 343.339844 L 287.8125 346.277344 L 283.59375 349.230469 L 279.386719 352.199219 L 275.191406 355.183594 L 271.007812 358.183594 L 266.835938 361.199219 L 262.675781 364.234375 L 258.527344 367.28125 L 254.390625 370.34375 Z M 250.261719 373.421875 "/>
<path fill-rule="nonzero" fill="rgb(96.381034%, 35.940434%, 77.928672%)" fill-opacity="0.7" stroke-width="2" stroke-linecap="butt" stroke-linejoin="miter" stroke="rgb(100%, 100%, 100%)" stroke-opacity="0.7" stroke-miterlimit="10" d="M 426.433594 120.042969 L 422.445312 122.527344 L 418.40625 124.929688 L 414.316406 127.246094 L 410.183594 129.484375 L 406.003906 131.632812 L 401.785156 133.699219 L 397.519531 135.675781 L 393.21875 137.566406 L 388.878906 139.371094 L 384.503906 141.085938 L 380.09375 142.707031 L 375.652344 144.242188 L 371.179688 145.6875 L 366.675781 147.039062 L 362.148438 148.296875 L 357.597656 149.464844 L 353.023438 150.539062 L 348.425781 151.519531 L 343.8125 152.40625 L 339.179688 153.199219 L 334.53125 153.894531 L 329.871094 154.496094 L 325.199219 155.003906 L 320.515625 155.417969 L 315.828125 155.734375 L 311.132812 155.953125 L 306.4375 156.082031 L 301.738281 156.109375 L 297.039062 156.042969 L 292.339844 155.878906 L 287.648438 155.621094 L 282.960938 155.269531 L 278.285156 154.820312 L 273.617188 154.273438 L 268.960938 153.636719 L 264.320312 152.902344 L 259.695312 152.070312 L 255.085938 151.148438 L 250.496094 150.132812 L 253.816406 155.691406 L 257.171875 161.230469 L 260.566406 166.746094 L 264.003906 172.234375 L 267.476562 177.699219 L 270.988281 183.140625 L 274.535156 188.558594 L 278.125 193.949219 L 281.75 199.316406 L 285.414062 204.65625 L 289.113281 209.96875 L 292.851562 215.257812 L 296.625 220.519531 L 300.4375 225.753906 L 304.285156 230.960938 L 308.171875 236.144531 L 312.09375 241.296875 L 316.050781 246.421875 L 320.042969 251.519531 L 324.074219 256.589844 L 328.136719 261.628906 L 332.238281 266.644531 L 336.375 271.625 L 340.542969 276.582031 L 344.75 281.503906 L 348.988281 286.398438 L 353.261719 291.265625 L 357.570312 296.101562 L 361.914062 300.90625 L 366.289062 305.679688 L 370.699219 310.421875 L 375.140625 315.132812 L 379.617188 319.8125 L 384.125 324.460938 L 388.664062 329.078125 L 393.238281 333.664062 L 397.84375 338.21875 L 402.480469 342.738281 L 407.148438 347.222656 L 405.933594 341.417969 L 404.804688 335.589844 L 403.765625 329.75 L 402.820312 323.890625 L 401.960938 318.019531 L 401.191406 312.136719 L 400.511719 306.238281 L 399.925781 300.335938 L 399.429688 294.421875 L 399.023438 288.5 L 398.707031 282.578125 L 398.480469 276.644531 L 398.347656 270.714844 L 398.304688 264.78125 L 398.351562 258.847656 L 398.492188 252.914062 L 398.71875 246.984375 L 399.039062 241.058594 L 399.453125 235.140625 L 399.953125 229.226562 L 400.546875 223.324219 L 401.230469 217.425781 L 402.003906 211.542969 L 402.867188 205.671875 L 403.820312 199.816406 L 404.863281 193.976562 L 405.992188 188.148438 L 407.214844 182.34375 L 408.523438 176.554688 L 409.921875 170.789062 L 411.410156 165.042969 L 412.984375 159.324219 L 414.648438 153.625 L 416.394531 147.957031 L 418.230469 142.3125 L 420.152344 136.699219 L 422.164062 131.113281 L 424.253906 125.5625 Z M 426.433594 120.042969 "/>
<path fill-rule="nonzero" fill="rgb(94.861033%, 43.55625%, 97.354447%)" fill-opacity="0.7" stroke-width="2" stroke-linecap="butt" stroke-linejoin="miter" stroke="rgb(100%, 100%, 100%)" stroke-opacity="0.7" stroke-miterlimit="10" d="M 243.082031 70.71875 L 246.804688 80.902344 L 250.699219 91.023438 L 254.753906 101.078125 L 258.972656 111.066406 L 263.351562 120.984375 L 267.890625 130.832031 L 272.59375 140.601562 L 277.453125 150.296875 L 282.46875 159.910156 L 287.640625 169.441406 L 292.964844 178.882812 L 298.445312 188.242188 L 304.074219 197.507812 L 309.855469 206.679688 L 315.785156 215.757812 L 321.859375 224.738281 L 328.082031 233.621094 L 334.445312 242.398438 L 340.953125 251.074219 L 347.601562 259.640625 L 354.386719 268.097656 L 361.308594 276.441406 L 368.363281 284.675781 L 375.554688 292.789062 L 382.875 300.789062 L 390.328125 308.664062 L 397.90625 316.421875 L 405.609375 324.050781 L 413.433594 331.558594 L 421.378906 338.933594 L 429.445312 346.179688 L 437.628906 353.292969 L 445.925781 360.273438 L 454.335938 367.117188 L 462.855469 373.824219 L 471.484375 380.390625 L 480.21875 386.816406 L 489.054688 393.101562 L 497.992188 399.238281 L 497.148438 399.730469 L 496.304688 400.230469 L 495.46875 400.738281 L 494.636719 401.25 L 493.808594 401.773438 L 492.984375 402.304688 L 492.167969 402.84375 L 491.355469 403.390625 L 490.546875 403.945312 L 489.746094 404.507812 L 488.949219 405.074219 L 488.160156 405.652344 L 487.375 406.238281 L 486.59375 406.828125 L 485.820312 407.429688 L 485.050781 408.035156 L 484.289062 408.648438 L 483.53125 409.269531 L 482.78125 409.898438 L 482.039062 410.535156 L 481.300781 411.175781 L 480.566406 411.824219 L 479.839844 412.484375 L 479.121094 413.144531 L 478.40625 413.816406 L 477.699219 414.492188 L 477 415.175781 L 476.304688 415.867188 L 475.617188 416.5625 L 474.9375 417.265625 L 474.261719 417.976562 L 473.59375 418.691406 L 472.933594 419.414062 L 472.28125 420.144531 L 471.632812 420.878906 L 470.992188 421.621094 L 470.359375 422.367188 L 469.734375 423.121094 L 469.117188 423.878906 L 461.238281 416.402344 L 453.457031 408.820312 L 445.773438 401.144531 L 438.183594 393.371094 L 430.699219 385.5 L 423.3125 377.535156 L 416.027344 369.476562 L 408.847656 361.328125 L 401.769531 353.085938 L 394.800781 344.753906 L 387.933594 336.335938 L 381.179688 327.828125 L 374.53125 319.238281 L 367.992188 310.5625 L 361.566406 301.804688 L 355.253906 292.964844 L 349.050781 284.046875 L 342.964844 275.050781 L 336.992188 265.976562 L 331.136719 256.828125 L 325.398438 247.605469 L 319.777344 238.308594 L 314.277344 228.941406 L 308.894531 219.507812 L 303.632812 210.003906 L 298.492188 200.433594 L 293.472656 190.800781 L 288.578125 181.101562 L 283.808594 171.34375 L 279.164062 161.523438 L 274.644531 151.644531 L 270.25 141.710938 L 265.980469 131.722656 L 261.839844 121.679688 L 257.832031 111.585938 L 253.949219 101.4375 L 250.195312 91.246094 L 246.574219 81.003906 Z M 243.082031 70.71875 "/>
<path fill-rule="nonzero" fill="rgb(8.634839%, 70.233554%, 55.831096%)" fill-opacity="0.7" stroke-width="2" stroke-linecap="butt" stroke-linejoin="miter" stroke="rgb(100%, 100%, 100%)" stroke-opacity="0.7" stroke-miterlimit="10" d="M 510.953125 212.703125 L 500.128906 217.421875 L 489.316406 222.171875 L 478.515625 226.945312 L 467.726562 231.753906 L 456.953125 236.585938 L 446.191406 241.449219 L 435.441406 246.339844 L 424.703125 251.261719 L 413.980469 256.210938 L 403.273438 261.1875 L 392.578125 266.195312 L 381.894531 271.230469 L 371.226562 276.296875 L 360.570312 281.386719 L 349.929688 286.507812 L 339.300781 291.65625 L 328.6875 296.835938 L 318.085938 302.042969 L 307.5 307.277344 L 296.925781 312.539062 L 286.371094 317.832031 L 275.824219 323.148438 L 265.296875 328.496094 L 254.78125 333.875 L 244.28125 339.277344 L 233.792969 344.710938 L 223.320312 350.167969 L 212.863281 355.65625 L 202.421875 361.175781 L 191.996094 366.71875 L 181.582031 372.289062 L 171.183594 377.890625 L 160.800781 383.515625 L 150.433594 389.171875 L 140.082031 394.855469 L 129.746094 400.566406 L 119.421875 406.304688 L 109.117188 412.070312 L 98.824219 417.863281 L 102.621094 413.761719 L 106.320312 409.578125 L 109.929688 405.308594 L 113.441406 400.964844 L 116.855469 396.539062 L 120.171875 392.039062 L 123.386719 387.46875 L 126.496094 382.828125 L 129.503906 378.117188 L 132.402344 373.339844 L 135.195312 368.5 L 137.882812 363.601562 L 140.457031 358.640625 L 142.921875 353.625 L 145.273438 348.558594 L 147.511719 343.4375 L 149.636719 338.269531 L 151.644531 333.054688 L 153.535156 327.796875 L 155.308594 322.496094 L 156.960938 317.160156 L 158.496094 311.785156 L 159.910156 306.378906 L 161.207031 300.945312 L 162.378906 295.480469 L 163.429688 289.992188 L 164.359375 284.480469 L 165.164062 278.953125 L 165.84375 273.40625 L 166.402344 267.84375 L 166.835938 262.273438 L 167.144531 256.695312 L 167.328125 251.109375 L 167.390625 245.523438 L 167.324219 239.933594 L 167.136719 234.347656 L 166.824219 228.769531 L 166.386719 223.199219 L 165.824219 217.640625 L 174.515625 219.78125 L 183.238281 221.808594 L 191.984375 223.714844 L 200.757812 225.507812 L 209.554688 227.179688 L 218.371094 228.730469 L 227.207031 230.164062 L 236.0625 231.480469 L 244.9375 232.675781 L 253.824219 233.75 L 262.726562 234.707031 L 271.640625 235.542969 L 280.566406 236.257812 L 289.5 236.855469 L 298.4375 237.328125 L 307.382812 237.683594 L 316.335938 237.917969 L 325.285156 238.03125 L 334.238281 238.023438 L 343.191406 237.894531 L 352.140625 237.648438 L 361.085938 237.277344 L 370.027344 236.789062 L 378.957031 236.179688 L 387.882812 235.449219 L 396.792969 234.597656 L 405.695312 233.625 L 414.582031 232.535156 L 423.453125 231.324219 L 432.304688 229.996094 L 441.140625 228.546875 L 449.953125 226.980469 L 458.746094 225.292969 L 467.515625 223.488281 L 476.261719 221.566406 L 484.976562 219.527344 L 493.667969 217.371094 L 502.328125 215.09375 Z M 510.953125 212.703125 "/>
</svg>
